<svg xmlns="http://www.w3.org/2000/svg" version="1.1" xmlns:xlink="http://www.w3.org/1999/xlink" width="512" height="439.57"><svg xmlns="http://www.w3.org/2000/svg" shape-rendering="geometricPrecision" text-rendering="geometricPrecision" image-rendering="optimizeQuality" fill-rule="evenodd" clip-rule="evenodd" viewBox="0 0 512 439.57"><path fill="#6E2222" fill-rule="nonzero" d="M219.214 183.398l37.221 3.631 42.26-2.932 3.974 3.7c9.645 8.983 20.126 16.789 31.384 23.492 11.357 6.761 23.703 12.527 36.961 17.363l5.842 2.131 49.335 157.862-18.645-1.694c-10.472-.951-20.837-3.249-31.198-5.545-7.356-1.63-14.716-3.261-21.768-4.296l-53.599 62.46-50.278-166.424-50.305 166.419-53.604-62.455c-7.048 1.035-14.407 2.666-21.762 4.295-10.364 2.297-20.731 4.595-31.206 5.546l-18.697 1.698 47.814-151.607 5.23-2.28c7.329-3.193 1.955-.833 9.065-3.912 32.393-14.026 59.178-25.625 70.524-42.117l4.159-6.045 7.293.71z"></path><path fill="#FC3737" d="M256.389 199.569l-38.35-3.741c-14.506 21.089-46.652 33.725-84.875 50.386L92.7 374.521c19.368-1.761 39.872-8.832 59.241-10.6l43.068 50.18 55.697-184.256 55.665 184.256 43.061-50.18c19.376 1.768 39.872 8.839 59.24 10.6l-41.916-134.124c-27.805-10.142-52.169-24.419-72.602-43.448l-37.765 2.62z"></path><path fill="#B82328" d="M249.885 187.723l.279 13.228 137.37 107.873-35.353-116.902z"></path><path fill="#B82328" d="M250.485 187.723l-.276 15.296-135.75 100.73 34.538-111.827z"></path><path fill="#6E2222" fill-rule="nonzero" d="M116.102 23.209c32.693 12.596 66.167 31.333 104.809 59.044l3.169 2.272 1.333 3.845c6.784 19.564 9.918 38.975 9.788 58.251-.13 19.354-3.49 38.409-9.69 57.202l-1.264 3.833-3.287 2.382c-36.415 26.39-68.877 46.482-101.588 60.475-33.076 14.149-66.178 21.95-103.487 23.559L0 294.756l3.062-15.562c17.614-89.52 15.284-173.698-.049-263.289L.293.008 16.326 1.32c35.097 2.873 66.859 9.207 99.776 21.889z"></path><path fill="#FC3737" d="M213.618 92.432C137.964 38.178 83.312 19.366 15.346 13.801c15.939 93.11 17.817 177.25 0 267.791 71.436-3.082 126.828-29.905 198.272-81.685 11.654-35.319 12.621-71.084 0-107.475z"></path><path fill="#6E2222" fill-rule="nonzero" d="M291.187 82.253c38.641-27.711 72.117-46.448 104.81-59.044 32.917-12.682 64.679-19.016 99.776-21.889L511.905 0l-2.82 15.953c-15.841 89.618-17.167 173.712-.049 263.29l2.964 15.51-15.786-.681c-37.31-1.609-70.414-9.41-103.493-23.559-32.71-13.993-65.175-34.086-101.583-60.475l-3.866-2.802-1.028-4.686c-4.074-18.581-6.414-37.324-6.566-56.264-.153-19.02 1.915-37.988 6.664-56.888l1.127-4.477 3.718-2.668z"></path><path fill="#FC3737" d="M298.48 92.432c75.654-54.254 130.307-73.066 198.272-78.631-16.461 93.11-17.305 177.25 0 267.791-71.435-3.082-126.838-29.905-198.272-81.685-7.851-35.803-9.008-71.624 0-107.475z"></path><path fill="#B32020" fill-rule="nonzero" d="M77.154 116.536a6.255 6.255 0 01.638-12.493c25.336 1.294 56.305 5.113 83.833 12.094 22.361 5.669 42.618 13.478 56.16 23.798a6.256 6.256 0 01.049 9.906c-16.786 14.756-38.219 24.776-60.971 31.132-27.296 7.623-56.584 9.99-81.943 8.953a6.252 6.252 0 01-6.002-6.49 6.252 6.252 0 016.491-6.002c24.219.99 52.153-1.26 78.124-8.512 18.382-5.135 35.741-12.771 49.994-23.529-11.773-7.057-27.6-12.713-44.94-17.109-26.744-6.78-56.827-10.492-81.433-11.748zm357.543-11.109a6.247 6.247 0 01-.146 12.493c-27.534-.379-56.847 2.879-81.746 9.423-18.839 4.951-34.985 11.717-45.596 20.108 13.993 10.671 31.159 17.906 49.403 22.622 26.531 6.857 55.3 8.373 80.076 7.361a6.25 6.25 0 01.489 12.492c-25.788 1.054-55.819-.547-83.701-7.753-22.306-5.766-43.271-15.134-59.719-29.6l-.445-.39a6.254 6.254 0 01-.172-8.842c11.77-12.281 32.255-21.73 56.481-28.097 25.935-6.817 56.441-10.211 85.076-9.817z"></path><path fill="#6E2222" fill-rule="nonzero" d="M212.902 74.598c15.493 2.472 29.105 3.654 42.627 3.628 13.358-.026 27.022-1.28 42.73-3.676l19.202-2.929-5.301 18.689c-4.961 17.495-7.306 35.928-7.306 54.45 0 19.419 2.556 38.767 7.355 57.106l4.769 18.225-18.62-2.709c-15.717-2.286-29.437-3.6-42.875-3.684-13.435-.082-26.996 1.044-42.482 3.636l-22.057 3.691 8.401-20.725c7.176-17.706 10.87-36.305 10.87-54.892 0-18.245-3.527-36.408-10.773-53.629l-8.717-20.719 22.177 3.538z"></path><path fill="#FF5023" d="M210.945 86.933c32.241 5.144 56.926 4.921 89.175 0-10.806 38.099-9.976 79.949 0 118.066-32.241-4.689-56.934-5.394-89.175 0 15.442-38.09 16.022-79.985 0-118.066z"></path><path fill="#FF721D" fill-rule="nonzero" d="M229.804 187.197c3.148-12.993 4.855-26.206 5.069-39.419a173.426 173.426 0 00-3.797-39.059l8.849-1.876c2.891 13.53 4.199 27.298 3.976 41.077-.226 13.894-2.016 27.772-5.318 41.401l-8.779-2.124z"></path></svg><style>@media (prefers-color-scheme: light) { :root { filter: none; } }
@media (prefers-color-scheme: dark) { :root { filter: none; } }
</style></svg>